<svg xmlns="http://www.w3.org/2000/svg" viewBox="0 0 500 700" role="img" aria-label="QR keychain front">
  <rect width="500" height="700" fill="#e5e7eb"/>
  <path d="M250 24c-111 0-202 88-202 197v171c0 150 95 258 202 285 107-27 202-135 202-285V221c0-109-91-197-202-197z" fill="#2d3742" stroke="#1f2937" stroke-width="6"/>
  <rect x="106" y="95" width="288" height="288" rx="8" fill="#f8fafc"/>
  <g fill="#1f2937">
    <rect x="124" y="113" width="72" height="72"/><rect x="304" y="113" width="72" height="72"/><rect x="124" y="293" width="72" height="72"/>
    <rect x="214" y="113" width="18" height="18"/><rect x="232" y="131" width="18" height="18"/><rect x="250" y="113" width="18" height="18"/>
    <rect x="214" y="149" width="18" height="18"/><rect x="268" y="149" width="18" height="18"/><rect x="286" y="167" width="18" height="18"/>
    <rect x="214" y="185" width="18" height="18"/><rect x="250" y="185" width="18" height="18"/><rect x="286" y="203" width="18" height="18"/>
    <rect x="214" y="221" width="18" height="18"/><rect x="232" y="239" width="18" height="18"/><rect x="250" y="221" width="18" height="18"/>
    <rect x="268" y="239" width="18" height="18"/><rect x="286" y="257" width="18" height="18"/><rect x="304" y="239" width="18" height="18"/>
    <rect x="214" y="275" width="18" height="18"/><rect x="250" y="275" width="18" height="18"/><rect x="286" y="293" width="18" height="18"/>
    <rect x="232" y="311" width="18" height="18"/><rect x="250" y="329" width="18" height="18"/><rect x="286" y="329" width="18" height="18"/>
    <rect x="322" y="203" width="18" height="18"/><rect x="340" y="221" width="18" height="18"/><rect x="358" y="239" width="18" height="18"/>
    <rect x="322" y="275" width="18" height="18"/><rect x="340" y="293" width="18" height="18"/><rect x="358" y="311" width="18" height="18"/>
  </g>
  <circle cx="250" cy="562" r="60" fill="#e5e7eb"/>
  <circle cx="250" cy="562" r="66" fill="none" stroke="#0f172a" stroke-width="6" opacity="0.35"/>
</svg>
